# xmcd CD database file
#
# Track frame offsets:
#	150
#	13998
#	26968
#	41301
#	53603
#	68021
#	79743
#	92963
#	106317
#	118971
#	133461
#	147065
#	159739
#	173254
#	183860
#	196474
#	210859
#	224418
#	237975
#	250417
#
# Disc length: 3610 seconds
#
# Revision: 0
# Processed by: cddbd v1.5.2PL0 Copyright (c) Steve Scherf et al.
# Submitted via: CDex 1.87
#
DISCID=1d0e1814
DTITLE=Django Reinhardt And Stephane Grappelli - The Absolutely Essential Collection - Disc 3
DYEAR=2016
DGENRE=Jazz
TTITLE0=My Serenade
TTITLE1=Swinging With Django
TTITLE2=Sweet Georgia Brown
TTITLE3=Night And Day
TTITLE4=Daphne
TTITLE5=Stompin' At Decca
TTITLE6=Billets Doux
TTITLE7=Flat Foot Floogie
TTITLE8=The Lambeth Walk
TTITLE9=Jeepers Creepers
TTITLE10=I Wonder where My Baby Is Tonight?
TTITLE11=Tea For Two
TTITLE12=HCQ Strut
TTITLE13=J'Attendrai (Tournerai)
TTITLE14=Echos De France (La Marseillaise)
TTITLE15=Melodie Au Crepuscule (Love's Melody)
TTITLE16=Belleville
TTITLE17=How High The Moon
TTITLE18=Ol' Man River
TTITLE19=Manoir De Mes Reves
EXTD=YEAR: 2016
EXTT0=
EXTT1=
EXTT2=
EXTT3=
EXTT4=
EXTT5=
EXTT6=
EXTT7=
EXTT8=
EXTT9=
EXTT10=
EXTT11=
EXTT12=
EXTT13=
EXTT14=
EXTT15=
EXTT16=
EXTT17=
EXTT18=
EXTT19=
PLAYORDER=
